<svg id="Layer_1" enable-background="new 0 0 510 510" height="512" viewBox="0 0 510 510" width="512" xmlns="http://www.w3.org/2000/svg"><g><path d="m213.697 150h15.286c-.003.013-.007.025-.011.039 23.939.994 43.111 20.781 43.111 44.961v15c0 8.271 6.729 15 15 15s15-6.729 15-15v-15c0-24.18 19.172-43.967 43.113-44.961-.004-.014 1.992-.026 1.988-.039h13.511c-6.949-34.234-37.216-60-73.499-60-36.284 0-66.55 25.766-73.499 60z"/><path d="m364.446 93.964 68.356-68.357-21.212-21.213-70.517 70.516c8.683 5.212 16.552 11.643 23.373 19.054z"/><path d="m218.293 62.132 28.716 5.874c12.386-5.152 25.958-8.006 40.188-8.006 10.131 0 19.931 1.447 29.206 4.138-5.263-36.273-36.475-64.138-74.206-64.138s-68.943 27.865-74.207 64.138c9.275-2.69 19.075-4.138 29.207-4.138 7.081 0 14.179.717 21.096 2.132z"/><path d="m201.079 105c3.356-4.803 7.11-9.306 11.202-13.477-4.873-.996-9.917-1.523-15.084-1.523-36.284 0-66.548 25.767-73.497 60h59.584c2.38-16.55 8.619-31.869 17.795-45z"/><path d="m346.441 180.014c-7.916.328-14.357 7.051-14.357 14.986v15c0 24.812-20.187 45-45 45-24.812 0-45-20.188-45-45v-15c0-7.936-6.44-14.658-14.356-14.986l-.319-.014h-150.212v45c0 85.925 66.022 156.707 150 164.311v60.689h-11c-27.062 0-49 21.938-49 49v11h150v-11c0-27.062-21.939-49-49-49h-11v-60.689c83.977-7.604 150-78.386 150-164.311v-45h-11.547z"/></g></svg>